HIERARCHY
ROOT Hips
{
	OFFSET 0.000000 0.000000 0.000000
	CHANNELS 6 Xposition Yposition Zposition Xrotation Yrotation Zrotation
	JOINT C_ctrl
	{
		OFFSET 0.000000 35.040482 -0.000011
		CHANNELS 3 Xrotation Yrotation Zrotation
		JOINT Bip01
		{
			OFFSET -41.537640 41.789009 -0.000007
			CHANNELS 3 Xrotation Yrotation Zrotation
			JOINT Bip01_Pelvis
			{
				OFFSET -2.462887 0.000000 0.000000
				CHANNELS 3 Xrotation Yrotation Zrotation
				JOINT BN_Tail_01
				{
					OFFSET -11.399368 7.351341 -0.000013
					CHANNELS 3 Xrotation Yrotation Zrotation
					JOINT BN_Tail_02
					{
						OFFSET -11.365196 -0.343025 0.000012
						CHANNELS 3 Xrotation Yrotation Zrotation
						JOINT BN_Tail_03
						{
							OFFSET -15.076256 -0.454979 0.000017
							CHANNELS 3 Xrotation Yrotation Zrotation
							JOINT BN_Tail_04
							{
								OFFSET -17.395691 -0.525002 0.000016
								CHANNELS 3 Xrotation Yrotation Zrotation
								JOINT BN_Tail_05
								{
									OFFSET -16.699837 -0.504005 0.000016
									CHANNELS 3 Xrotation Yrotation Zrotation
									End Site
									{
										OFFSET 0.503998 -16.699829 0.000067
									}
								}
							}
						}
					}
				}
				JOINT Bip01_Spine
				{
					OFFSET 8.297798 5.916809 -0.000020
					CHANNELS 3 Xrotation Yrotation Zrotation
					JOINT Bip01_R_Thigh
					{
						OFFSET -8.297779 -5.916794 10.541781
						CHANNELS 3 Xrotation Yrotation Zrotation
						JOINT Bip01_R_Calf
						{
							OFFSET 5.631542 -22.906792 0.862690
							CHANNELS 3 Xrotation Yrotation Zrotation
							JOINT Bip01_R_HorseLink
							{
								OFFSET -16.984341 -19.231926 -3.555767
								CHANNELS 3 Xrotation Yrotation Zrotation
								JOINT Bip01_R_Foot
								{
									OFFSET 4.290367 -24.783146 0.578056
									CHANNELS 3 Xrotation Yrotation Zrotation
									JOINT Bip01_R_Toe0
									{
										OFFSET 3.561211 -5.815116 0.760802
										CHANNELS 3 Xrotation Yrotation Zrotation
										JOINT Bip01_R_Toe0Nub
										{
											OFFSET 16.135469 0.002017 1.534789
											CHANNELS 3 Xrotation Yrotation Zrotation
											End Site
											{
												OFFSET -0.000002 16.208284 -0.000056
											}
										}
									}
								}
							}
						}
					}
					JOINT Bip01_L_Thigh
					{
						OFFSET -8.297813 -5.916832 -10.541739
						CHANNELS 3 Xrotation Yrotation Zrotation
						JOINT Bip01_L_Calf
						{
							OFFSET 5.631535 -22.906792 -0.862625
							CHANNELS 3 Xrotation Yrotation Zrotation
							JOINT Bip01_L_HorseLink
							{
								OFFSET -16.984318 -19.231949 3.555875
								CHANNELS 3 Xrotation Yrotation Zrotation
								JOINT Bip01_L_Foot
								{
									OFFSET 4.290367 -24.783169 -0.577965
									CHANNELS 3 Xrotation Yrotation Zrotation
									JOINT Bip01_L_Toe0
									{
										OFFSET 3.561245 -5.815111 -0.760799
										CHANNELS 3 Xrotation Yrotation Zrotation
										JOINT Bip01_L_Toe0Nub
										{
											OFFSET 6.574303 -0.000005 -1.538561
											CHANNELS 3 Xrotation Yrotation Zrotation
											End Site
											{
												OFFSET 0.000004 -6.751935 0.000023
											}
										}
									}
								}
							}
						}
					}
					JOINT Bip01_Spine1
					{
						OFFSET 20.556803 -4.626213 -0.000025
						CHANNELS 3 Xrotation Yrotation Zrotation
						JOINT Saddle
						{
							OFFSET 17.608810 18.174690 -0.000143
							CHANNELS 3 Xrotation Yrotation Zrotation
							End Site
							{
								OFFSET -0.000063 -0.000061 -22.448387
							}
						}
						JOINT BN_center
						{
							OFFSET 10.743275 -13.417107 -0.172041
							CHANNELS 3 Xrotation Yrotation Zrotation
							End Site
							{
								OFFSET 22.434088 0.553078 -0.579614
							}
						}
						JOINT Bip01_Spine2
						{
							OFFSET 24.765072 -2.054115 -0.000032
							CHANNELS 3 Xrotation Yrotation Zrotation
							JOINT Handle
							{
								OFFSET 63.735676 16.430748 -16.052464
								CHANNELS 3 Xrotation Yrotation Zrotation
								JOINT IK_Chain01
								{
									OFFSET -4.713058 -6.020439 0.185448
									CHANNELS 3 Xrotation Yrotation Zrotation
									End Site
									{
										OFFSET -0.000023 -0.000023 -7.648071
									}
								}
							}
							JOINT BN_hair04_01
							{
								OFFSET 1.987491 16.256981 -2.049672
								CHANNELS 3 Xrotation Yrotation Zrotation
								JOINT BN_hair04_02
								{
									OFFSET -1.318762 -3.831451 -6.174704
									CHANNELS 3 Xrotation Yrotation Zrotation
									JOINT BN_hair04_03
									{
										OFFSET -0.827490 -5.886627 -5.656666
										CHANNELS 3 Xrotation Yrotation Zrotation
										End Site
										{
											OFFSET -2.658262 5.010620 -5.929780
										}
									}
								}
							}
							JOINT Bip01_Neck
							{
								OFFSET 25.574577 9.433014 -0.000084
								CHANNELS 3 Xrotation Yrotation Zrotation
								JOINT Bip01_R_Clavicle
								{
									OFFSET -16.535652 0.011192 6.705692
									CHANNELS 3 Xrotation Yrotation Zrotation
									JOINT Bip01_R_UpperArm
									{
										OFFSET 20.272621 -12.959984 2.510816
										CHANNELS 3 Xrotation Yrotation Zrotation
										JOINT Bip01_R_Forearm
										{
											OFFSET -13.633509 -15.503704 -0.653585
											CHANNELS 3 Xrotation Yrotation Zrotation
											JOINT Bip01_R_Hand
											{
												OFFSET 2.580030 -27.804676 -1.136415
												CHANNELS 3 Xrotation Yrotation Zrotation
												JOINT Bip01_R_Finger0
												{
													OFFSET -0.281744 -19.659061 -0.398649
													CHANNELS 3 Xrotation Yrotation Zrotation
													JOINT Bip01_Xtra02
													{
														OFFSET 4.152210 -5.712314 0.433813
														CHANNELS 3 Xrotation Yrotation Zrotation
														JOINT Bip01_Xtra02Nub
														{
															OFFSET 15.457960 0.041654 0.507982
															CHANNELS 3 Xrotation Yrotation Zrotation
															End Site
															{
																OFFSET -15.421730 -0.157725 -1.163459
															}
														}
													}
													JOINT Bip01_R_Finger0Nub
													{
														OFFSET 8.362326 -9.718440 -0.143142
														CHANNELS 3 Xrotation Yrotation Zrotation
														End Site
														{
															OFFSET -1.213036 -0.198171 9.872291
														}
													}
												}
											}
										}
									}
								}
								JOINT Bip01_L_Clavicle
								{
									OFFSET -16.535673 0.011162 -6.705583
									CHANNELS 3 Xrotation Yrotation Zrotation
									JOINT Bip01_L_UpperArm
									{
										OFFSET 20.272615 -12.959999 -2.510836
										CHANNELS 3 Xrotation Yrotation Zrotation
										JOINT Bip01_L_Forearm
										{
											OFFSET -13.633495 -15.503681 0.653678
											CHANNELS 3 Xrotation Yrotation Zrotation
											JOINT Bip01_L_Hand
											{
												OFFSET 2.579988 -27.804686 1.136487
												CHANNELS 3 Xrotation Yrotation Zrotation
												JOINT Bip01_L_Finger0
												{
													OFFSET -0.281765 -19.659058 0.398696
													CHANNELS 3 Xrotation Yrotation Zrotation
													JOINT Bip01_Xtra01
													{
														OFFSET 4.083549 -5.738758 -0.666714
														CHANNELS 3 Xrotation Yrotation Zrotation
														JOINT Bip01_Xtra01Nub
														{
															OFFSET 6.758158 -0.395525 -0.023239
															CHANNELS 3 Xrotation Yrotation Zrotation
															End Site
															{
																OFFSET 6.764923 -0.254147 -0.029908
															}
														}
													}
													JOINT Bip01_L_Finger0Nub
													{
														OFFSET -0.012636 -9.629153 0.045740
														CHANNELS 3 Xrotation Yrotation Zrotation
														End Site
														{
															OFFSET 0.988407 0.004791 8.293357
														}
													}
												}
											}
										}
									}
								}
								JOINT BN_hair03_01
								{
									OFFSET -5.894140 16.270622 -2.498433
									CHANNELS 3 Xrotation Yrotation Zrotation
									JOINT BN_hair03_02
									{
										OFFSET -0.189278 -7.800507 -6.219162
										CHANNELS 3 Xrotation Yrotation Zrotation
										JOINT BN_hair03_03
										{
											OFFSET 0.612345 -10.844475 -3.370718
											CHANNELS 3 Xrotation Yrotation Zrotation
											End Site
											{
												OFFSET -2.273296 2.862007 -10.769416
											}
										}
									}
								}
								JOINT Bip01_Neck1
								{
									OFFSET 9.383755 11.908699 -0.000007
									CHANNELS 3 Xrotation Yrotation Zrotation
									JOINT BN_hair02_01
									{
										OFFSET 9.126320 18.808022 -1.420810
										CHANNELS 3 Xrotation Yrotation Zrotation
										JOINT BN_hair02_02
										{
											OFFSET 0.393478 -5.181091 -5.248574
											CHANNELS 3 Xrotation Yrotation Zrotation
											JOINT BN_hair02_03
											{
												OFFSET 0.762280 -8.167076 -0.230047
												CHANNELS 3 Xrotation Yrotation Zrotation
												End Site
												{
													OFFSET -0.025837 -1.251419 -8.109770
												}
											}
										}
									}
									JOINT Bip01_Head
									{
										OFFSET 14.266129 10.475403 -0.000008
										CHANNELS 3 Xrotation Yrotation Zrotation
										JOINT BN_Reins_01
										{
											OFFSET 18.547455 -15.740112 -0.000035
											CHANNELS 3 Xrotation Yrotation Zrotation
											JOINT BN_Reins_02
											{
												OFFSET -5.372810 -5.884506 0.000028
												CHANNELS 3 Xrotation Yrotation Zrotation
												JOINT BN_Reins_03
												{
													OFFSET -6.395866 -15.947449 0.000070
													CHANNELS 3 Xrotation Yrotation Zrotation
													JOINT BN_Halter_R_01
													{
														OFFSET -1.234055 -3.096100 7.096737
														CHANNELS 3 Xrotation Yrotation Zrotation
														End Site
														{
															OFFSET 10.514435 -4.176861 -0.000004
														}
													}
													JOINT BN_Halter_L_01
													{
														OFFSET -1.234062 -3.096146 -7.096726
														CHANNELS 3 Xrotation Yrotation Zrotation
														End Site
														{
															OFFSET -10.514435 4.176865 -0.000000
														}
													}
													JOINT BN_Reins_04
													{
														OFFSET -6.737644 -16.971684 0.000074
														CHANNELS 3 Xrotation Yrotation Zrotation
														JOINT BN_Halter_R_02
														{
															OFFSET -4.688869 -11.781956 7.096771
															CHANNELS 3 Xrotation Yrotation Zrotation
															End Site
															{
																OFFSET 14.669624 -5.827511 -0.000006
															}
														}
														JOINT BN_Halter_L_02
														{
															OFFSET -4.688892 -11.782017 -7.096693
															CHANNELS 3 Xrotation Yrotation Zrotation
															End Site
															{
																OFFSET -14.669624 5.827507 -0.000002
															}
														}
														JOINT BN_Reins_05
														{
															OFFSET -6.822578 -16.971161 0.000074
															CHANNELS 3 Xrotation Yrotation Zrotation
															JOINT BN_Reins_06
															{
																OFFSET -6.140354 -15.095148 0.000066
																CHANNELS 3 Xrotation Yrotation Zrotation
																End Site
																{
																	OFFSET -15.095150 6.140352 -0.000002
																}
															}
														}
													}
												}
											}
										}
										JOINT BN_hair01_01
										{
											OFFSET 8.957344 8.870956 0.112121
											CHANNELS 3 Xrotation Yrotation Zrotation
											JOINT BN_hair01_02
											{
												OFFSET 6.002075 -2.962952 -3.121264
												CHANNELS 3 Xrotation Yrotation Zrotation
												End Site
												{
													OFFSET 5.917702 3.813591 -2.232396
												}
											}
										}
										JOINT BN_Eyebrow_R
										{
											OFFSET 11.795959 -0.430496 4.449781
											CHANNELS 3 Xrotation Yrotation Zrotation
											JOINT Bip01_Xtra06Nub
											{
												OFFSET 2.936661 -0.262573 3.246701
												CHANNELS 3 Xrotation Yrotation Zrotation
												End Site
												{
													OFFSET 2.768745 0.208199 3.394807
												}
											}
										}
										JOINT BN_Eyebrow_L
										{
											OFFSET 11.586395 -0.445618 -4.441728
											CHANNELS 3 Xrotation Yrotation Zrotation
											JOINT Bip01_Xtra05Nub
											{
												OFFSET 3.244698 -0.349442 -4.416700
												CHANNELS 3 Xrotation Yrotation Zrotation
												End Site
												{
													OFFSET 3.053162 0.072495 -4.564033
												}
											}
										}
										JOINT Bip01_R_Ear_01
										{
											OFFSET 7.142960 7.567184 4.311657
											CHANNELS 3 Xrotation Yrotation Zrotation
											JOINT Bip01_Xtra04Nub
											{
												OFFSET 9.464531 9.264214 1.682953
												CHANNELS 3 Xrotation Yrotation Zrotation
												End Site
												{
													OFFSET 8.448181 10.159340 1.910823
												}
											}
										}
										JOINT Bip01__L_Ear_01
										{
											OFFSET 7.214943 7.717056 -4.356771
											CHANNELS 3 Xrotation Yrotation Zrotation
											JOINT Bip01_Xtra03Nub
											{
												OFFSET 9.230225 8.944366 -2.322746
												CHANNELS 3 Xrotation Yrotation Zrotation
												End Site
												{
													OFFSET 8.170288 9.841324 -2.643566
												}
											}
										}
										JOINT Bip01_Jaw
										{
											OFFSET 9.196068 -4.110695 -0.000013
											CHANNELS 3 Xrotation Yrotation Zrotation
											JOINT Bip01_Ponytail1Nub
											{
												OFFSET 10.976463 -21.082108 -0.000053
												CHANNELS 3 Xrotation Yrotation Zrotation
												End Site
												{
													OFFSET 11.247093 -20.938980 0.000113
												}
											}
										}
										JOINT Bip01_HeadNub
										{
											OFFSET 29.954575 -18.249489 -0.000063
											CHANNELS 3 Xrotation Yrotation Zrotation
											End Site
											{
												OFFSET -9.198448 -13.366348 0.000168
											}
										}
									}
								}
							}
						}
					}
				}
			}
		}
	}
}
MOTION
Frames: 4
Frame Time: 0.033333
0.000000 0.000000 0.000000 0.000008 0.000000 -0.000000 -0.000000 0.000000 -0.000000 2.902197 1.170784 -0.073326 0.000203 2.412999 -0.000025 1.458383 0.359511 28.957417 1.034154 -2.195022 23.064121 1.113040 -2.908823 19.158093 0.323037 -1.413430 11.145897 0.020165 -0.571058 0.868143 0.089496 -3.274390 8.496391 -5.128303 12.718844 11.748672 -0.106069 -0.006312 0.538244 -1.014186 -0.101527 5.163888 8.525176 -6.629308 -44.928151 -0.055483 -0.004387 0.242718 -0.000026 -0.000010 -0.000009 -5.169552 -4.683756 -10.136400 0.204381 0.013059 1.037338 -2.113266 0.082159 -10.727743 2.568972 -2.407016 8.164738 1.261930 -0.696387 5.290706 -0.008476 -0.000102 -0.038630 0.096410 -0.603265 -8.863954 -3.130726 0.252147 0.254915 -0.662990 -0.200966 0.035004 -0.881502 0.067754 -10.015415 0.000078 -0.000112 -0.000055 -0.000056 -0.027867 0.027952 5.168372 3.748590 6.220102 -0.030371 0.078329 -0.092611 -4.295898 -0.863880 1.465748 -1.648429 0.653181 3.740266 1.569862 -2.250029 -12.916829 -6.969388 -2.236743 7.072815 0.034079 0.329976 -8.094888 7.986533 2.086703 -5.955356 3.089044 0.158413 -18.950660 0.000035 0.000414 -0.000000 -0.802231 0.160617 -0.479861 -0.804182 0.123494 -0.482643 1.698047 -1.500371 0.883582 -1.748270 10.009810 23.429806 0.000509 0.018441 0.449530 -9.287901 -8.569178 -0.851416 4.652558 -2.374456 -15.106866 -0.089115 13.329271 0.167008 0.036665 0.063834 2.451839 -0.000913 0.100618 2.451966 2.550186 1.535374 -2.012049 -0.182357 -0.033577 0.062853 -0.998352 -0.182435 0.214485 0.029971 1.318336 -0.251182 7.116514 0.658245 -0.166504 -0.689636 -0.025412 0.003489 -5.613690 -0.543402 0.067796 -1.858638 -1.598503 -2.497080 -0.000005 -0.000240 -21.499112 -0.007127 0.555863 -10.676662 -0.000093 -0.000099 -32.374291 -0.000028 -0.000037 -1.797736 -0.000009 -0.000041 -2.378453 -0.000151 -0.000136 -50.385851 -23.901250 -11.934582 -2.559543 34.949211 16.671942 -5.206565 -0.000084 -0.000109 -34.511296 0.000023 0.000009 -0.000020 3.706687 4.215973 5.136710 5.823918 2.100277 3.651296 0.000062 0.000005 0.000001 0.024207 -0.029997 11.786618 0.000076 0.000008 -0.000013 0.023235 -0.032333 11.715960 -0.037784 -0.072488 0.565008 0.050281 0.015113 11.755994 -0.146481 -0.265737 -1.468483 0.022856 0.006802 11.747241 -0.000143 -0.000271 0.083545 -0.004513 -0.052611 11.750678 0.000062 -0.000010 11.750680 
0.000000 0.000000 0.000000 0.000008 0.000000 -0.000000 -0.000000 0.000000 -0.000000 2.609882 1.354799 -0.075727 -0.000077 2.366615 -0.000011 1.458383 0.359512 28.957417 0.980344 -2.126281 23.008802 1.204450 -3.236114 18.835891 0.447892 -1.970245 11.105916 0.013373 -0.210676 1.922372 0.050818 -3.295194 9.051867 -4.652171 13.210269 10.872912 -0.764851 -0.068010 3.889888 -0.723174 -0.062921 3.677267 7.769054 -6.484730 -41.282022 -0.000072 -0.000023 0.000081 -0.000026 -0.000011 -0.000005 -4.862681 -4.692978 -11.442150 0.207265 0.013271 1.051988 -2.206650 0.094999 -11.205067 2.627330 -2.496152 8.633426 1.339710 -0.690351 6.020917 -0.008476 -0.000100 -0.038630 0.371889 -0.682904 -9.385391 -3.071591 0.170636 0.211130 -0.827682 -0.205155 0.038653 -0.774215 0.072469 -10.111498 0.000078 -0.000112 -0.000057 -0.000056 -0.027867 0.027952 5.549098 3.832842 5.851924 0.058969 0.193856 -0.228607 -4.252053 -0.843566 1.441734 -1.632067 0.692460 3.355511 1.572859 -2.235135 -12.268936 -7.150799 -2.475230 7.576503 0.034666 0.333303 -8.177246 7.983170 1.827330 -7.460213 3.876038 -0.452691 -28.565063 -0.000260 0.000145 -0.000037 -0.802258 0.160616 -0.479847 -0.804182 0.123494 -0.482640 1.699894 -1.617087 1.828849 -1.614915 10.278534 22.603850 -0.000744 -0.019944 -0.486818 -9.636182 -8.685736 -1.485214 4.729784 -2.360091 -12.897220 -0.089096 13.329270 0.167007 0.036692 0.063833 2.451839 -0.000913 0.100618 2.451965 2.767288 1.577655 -2.072959 0.315771 0.024760 -0.025251 -0.979606 -0.180659 0.214151 0.054699 1.286302 -0.190206 7.099424 0.656684 -0.166038 -0.592530 -0.005028 -0.009088 -5.302246 -0.509929 0.033346 -2.079615 -1.635217 -2.257314 -0.000005 -0.000241 -21.499105 -0.002365 0.570894 -10.972156 -0.000092 -0.000099 -32.222623 -0.000028 -0.000037 -1.797738 -0.000008 -0.000041 -2.378449 -0.000150 -0.000136 -50.152809 -23.901252 -11.934581 -2.559541 34.949231 16.671933 -5.206588 -0.000084 -0.000109 -34.367285 0.000022 0.000010 -0.000019 3.903335 4.425692 5.149560 6.046412 2.097213 4.149991 0.000060 0.000014 0.000001 0.024225 -0.029991 11.786639 0.000055 -0.000035 -0.000005 0.023249 -0.032332 11.715937 0.000212 -0.000163 0.000109 0.050296 0.015137 11.756000 -0.199832 -0.358656 -1.987220 0.022905 0.006896 11.747221 -0.000142 -0.000267 0.170676 -0.004495 -0.052632 11.750680 0.000062 -0.000011 11.750690 
0.000000 0.000000 0.000000 0.000008 0.000000 -0.000000 -0.000000 0.000000 -0.000000 2.308149 1.527840 -0.075537 0.000033 2.310389 -0.000011 1.458383 0.359511 28.957417 0.916402 -2.042209 22.882023 1.269183 -3.474977 18.660113 0.598563 -2.668784 10.949380 -0.000183 0.153072 2.987073 0.013119 -3.298629 9.564537 -4.175479 13.518752 10.358844 -1.273581 -0.142483 6.493538 -0.389266 -0.028048 1.976961 6.852175 -6.243324 -37.706688 -0.000072 -0.000008 0.000082 -0.000027 -0.000010 -0.000005 -4.540699 -4.736731 -12.667009 0.189249 0.011967 0.960500 -2.291026 0.107283 -11.636808 2.702992 -2.548507 9.127899 1.418164 -0.683246 6.758342 -0.008476 -0.000101 -0.038630 0.628974 -0.757604 -9.803756 -3.011937 0.088284 0.166993 -0.994002 -0.209393 0.042343 -0.666767 0.076312 -10.193327 0.000078 -0.000112 -0.000054 -0.000056 -0.027867 0.027952 5.934196 3.915466 5.479437 0.142714 0.346739 -0.402831 -4.207761 -0.823073 1.417450 -1.602237 0.726769 2.946147 1.564485 -2.200422 -11.513115 -7.279890 -2.731905 7.934200 0.032556 0.321184 -7.877329 7.987433 1.578664 -9.410427 4.498856 -1.142605 -37.699506 -0.000216 0.000144 -0.000047 -0.802315 0.160617 -0.479856 -0.804181 0.123495 -0.482639 1.670234 -1.661779 2.383040 -1.503136 10.398600 21.643754 -0.001443 -0.035768 -0.872951 -9.835752 -8.797010 -1.718460 4.766526 -2.312954 -11.475076 -0.088927 13.329270 0.166849 0.036747 0.063834 2.451839 -0.000913 0.100618 2.451964 2.986589 1.620119 -2.134597 0.957453 0.099488 -0.140550 -0.960663 -0.178869 0.213836 0.080840 1.243273 -0.166763 7.082222 0.655122 -0.165534 -0.494429 0.015539 -0.021863 -4.987687 -0.476487 -0.001686 -2.262440 -1.661521 -2.049580 -0.000005 -0.000240 -21.499105 -0.004434 0.577406 -11.219716 -0.000092 -0.000099 -32.069466 -0.000028 -0.000038 -1.797734 -0.000009 -0.000041 -2.378450 -0.000150 -0.000136 -49.917471 -23.901252 -11.934578 -2.559550 34.949255 16.671921 -5.206648 -0.000083 -0.000109 -34.221840 0.000023 0.000009 -0.000022 4.101918 4.637532 5.161812 6.271126 2.096085 4.653628 0.000061 0.000009 0.000004 0.024258 -0.029992 11.786686 0.000056 -0.000034 -0.000003 0.023277 -0.032328 11.715888 0.031066 0.057323 -0.451033 0.050316 0.015185 11.756005 -0.254570 -0.451998 -2.511151 0.022807 0.006706 11.747262 -0.000139 -0.000262 0.272664 -0.004461 -0.052674 11.750673 0.000062 -0.000010 11.750692 
0.000000 0.000000 0.000000 0.000008 0.000000 -0.000000 -0.000000 0.000000 -0.000000 1.997759 1.689776 -0.072902 0.000042 2.244519 0.000003 1.458383 0.359511 28.957417 0.877527 -1.971704 22.542723 1.325413 -3.565152 18.848571 0.747972 -3.445193 10.524426 0.026126 -0.125571 3.584856 -0.022411 -3.285771 9.986896 -3.658362 13.739083 9.943081 -1.745904 -0.232987 8.928163 0.027352 0.001495 -0.138708 5.741635 -5.945437 -33.735691 -0.000073 0.000023 0.000081 -0.000027 -0.000010 -0.000006 -4.199188 -4.817997 -13.740842 0.139749 0.008529 0.709182 -2.359305 0.117694 -11.986562 2.779902 -2.600353 9.627186 1.497191 -0.675018 7.503288 -0.008476 -0.000101 -0.038630 0.847897 -0.820365 -10.066093 -2.950032 0.005248 0.119251 -1.161954 -0.213695 0.046046 -0.566355 0.081045 -10.252329 0.000078 -0.000112 -0.000056 -0.000056 -0.027867 0.027952 6.411061 3.947891 4.682998 0.229582 0.528723 -0.608003 -4.163014 -0.802423 1.392910 -1.552151 0.751869 2.538027 1.535603 -2.144563 -10.689210 -7.327024 -2.988614 8.075118 0.026968 0.287074 -7.034534 8.001059 1.345574 -11.911906 4.928759 -1.805139 -45.583115 -0.000128 0.000293 -0.000057 -0.802422 0.160630 -0.479849 -0.804182 0.123494 -0.482644 1.601516 -1.642249 2.587214 -1.362210 10.392653 20.415866 -0.000974 -0.025455 -0.621294 -9.939864 -8.885786 -1.651097 4.769649 -2.239885 -10.750731 -0.089057 13.329276 0.166862 0.036853 0.063833 2.451837 -0.000913 0.100618 2.451965 3.239388 1.608417 -2.134429 1.709885 0.185661 -0.277309 -0.941541 -0.177066 0.213518 0.110611 1.183768 -0.191762 7.064529 0.653508 -0.165028 -0.381596 0.038976 -0.036460 -4.669995 -0.443088 -0.037298 -2.382568 -1.666140 -1.891914 -0.000005 -0.000240 -21.499106 -0.005012 0.567592 -11.393456 -0.000091 -0.000098 -31.927245 -0.000028 -0.000037 -1.797736 -0.000008 -0.000041 -2.378448 -0.000149 -0.000135 -49.700213 -23.901250 -11.934580 -2.559543 34.949207 16.671940 -5.206545 -0.000083 -0.000108 -34.075199 0.000023 0.000009 -0.000020 4.286225 4.838448 5.133517 6.644034 2.260605 4.941749 0.000061 0.000010 0.000001 0.024323 -0.029967 11.786766 0.000056 -0.000034 -0.000005 0.023337 -0.032316 11.715803 0.062708 0.115171 -0.907034 0.050369 0.015280 11.756023 -0.314799 -0.552503 -3.078626 0.022805 0.006706 11.747265 -0.000137 -0.000256 0.375660 -0.004392 -0.052756 11.750677 0.000062 -0.000010 11.750691 
